<?xml version="1.0" encoding="UTF-8"?>
<svg xmlns="http://www.w3.org/2000/svg" xmlns:xlink="http://www.w3.org/1999/xlink" width="75px" height="75px" viewBox="0 0 75 75" version="1.1">
<g id="surface1">
<path style=" stroke:none;fill-rule:nonzero;fill:rgb(100%,100%,100%);fill-opacity:1;" d="M 37.5 0 C 16.800781 0 0 16.800781 0 37.5 C 0 40.199219 0.300781 42.851562 0.851562 45.398438 L 22.101562 61 L 32.398438 59.648438 C 32.601562 59.648438 32.75 59.5 32.851562 59.351562 C 33.25 58.75 33.851562 58.351562 34.601562 58.25 L 43.648438 57.050781 C 45.101562 56.851562 46.449219 57.898438 46.550781 59.398438 C 46.601562 60.648438 45.699219 61.800781 44.398438 61.949219 L 35.25 63.148438 C 34.550781 63.25 33.898438 63.050781 33.398438 62.648438 C 33.300781 62.550781 33.148438 62.5 33 62.550781 L 21.351562 64.101562 L 2.101562 49.949219 C 7.25 64.550781 21.148438 75 37.5 75 C 58.199219 75 75 58.199219 75 37.5 C 75 16.800781 58.199219 0 37.5 0 Z M 37.5 0 "/>
</g>
</svg>
